<svg width="81" height="90" viewBox="0 0 81 90" fill="none" xmlns="http://www.w3.org/2000/svg">
<path d="M67.8291 43.391C67.6464 43.2568 67.451 43.1452 67.2463 43.0584C66.8787 40.2811 65.2606 31.5089 59.0248 25.0802C59.1365 23.4906 58.9422 21.8928 58.4549 20.3932C57.9676 18.8935 57.1985 17.5263 56.1987 16.3826C56.1403 16.3163 56.1006 16.2327 56.0843 16.1418C56.068 16.0509 56.0759 15.9567 56.1069 15.8707C56.4195 15.0059 56.6616 14.1117 56.8302 13.1988C56.8823 12.9145 56.8335 12.6188 56.694 12.3735C56.5545 12.1283 56.3351 11.9524 56.0816 11.8826C55.8358 11.8422 55.5854 11.9069 55.3808 12.0634C55.1761 12.2199 55.0324 12.4568 54.9786 12.7263C54.3644 14.7536 53.5765 16.7107 52.6258 18.5707C52.6128 18.5967 52.6057 18.6259 52.6052 18.6557C52.6046 18.6855 52.6107 18.715 52.6228 18.7416C52.6349 18.7682 52.6527 18.791 52.6747 18.8082C52.6966 18.8254 52.722 18.8363 52.7486 18.84C52.9769 18.8728 53.1866 18.9967 53.3388 19.1885C53.491 19.3803 53.5753 19.627 53.576 19.8828C53.5767 20.1385 53.4937 20.3858 53.3426 20.5786C53.1914 20.7715 52.9824 20.8967 52.7543 20.9311C52.5821 20.954 52.4088 20.9648 52.2354 20.9634C51.4571 20.9915 50.6856 20.7943 49.9966 20.3912C49.3076 19.9882 48.7246 19.393 48.305 18.6642C48.1835 18.4562 48.1292 18.2085 48.1509 17.9617C48.1727 17.715 48.2691 17.4837 48.4246 17.3058C48.5274 17.1947 48.6516 17.1109 48.7878 17.0608C48.924 17.0107 49.0686 16.9955 49.2108 17.0164C49.353 17.0373 49.4891 17.0938 49.6089 17.1815C49.7286 17.2693 49.8289 17.386 49.9022 17.523C50.0066 17.7175 50.1332 17.8961 50.2787 18.0546C51.0976 17.6419 51.9981 16.0205 52.6043 14.2774C52.6267 14.2118 52.6373 14.1419 52.6353 14.0717C52.6334 14.0015 52.6189 13.9325 52.5929 13.8685C52.5668 13.8045 52.5297 13.7469 52.4835 13.699C52.4374 13.651 52.3832 13.6137 52.324 13.5891C50.2207 12.7468 47.9254 12.7037 45.7977 13.4664C43.67 14.229 41.8301 15.7545 40.5663 17.8036H40.4999C18.2818 17.8036 14.347 38.5289 13.7534 43.0633C13.3357 43.2288 12.9652 43.515 12.6801 43.8924C12.3951 44.2698 12.2057 44.7249 12.1315 45.2107C11.95 46.0219 11.9613 46.8717 12.1644 47.6766L17.9667 71.336C18.5724 73.7899 19.8859 75.9552 21.7057 77.4998C23.5255 79.0445 25.751 79.8832 28.0411 79.8874H52.9587C55.2487 79.8832 57.4743 79.0445 59.2941 77.4998C61.1138 75.9552 62.4273 73.7899 63.0331 71.336L69.0169 46.9376C69.1829 46.2828 69.1572 45.5865 68.9437 44.949C68.7302 44.3115 68.3399 43.7659 67.8291 43.391V43.391ZM25.8851 73.1191C25.8199 73.1344 25.7536 73.1422 25.687 73.1423C25.4695 73.1421 25.2587 73.0588 25.0898 72.9065C24.9209 72.7542 24.8043 72.5421 24.7593 72.3056L21.001 52.5935C20.9488 52.3198 20.9966 52.0344 21.1339 51.7998C21.2711 51.5653 21.4866 51.401 21.7329 51.343C21.9792 51.285 22.2361 51.3381 22.4472 51.4906C22.6582 51.6431 22.8061 51.8825 22.8583 52.1562L26.6166 71.8662C26.6428 72.0018 26.6446 72.1419 26.622 72.2783C26.5994 72.4148 26.5528 72.5449 26.4848 72.6613C26.4169 72.7777 26.3289 72.878 26.226 72.9566C26.1231 73.0352 26.0072 73.0904 25.8851 73.1191V73.1191ZM35.1089 74.4305C35.0931 74.4305 35.0767 74.4305 35.0602 74.4305C34.8167 74.4308 34.5824 74.3272 34.4057 74.1409C34.229 73.9547 34.1235 73.7001 34.111 73.4299L33.1042 51.4179C33.0914 51.1382 33.1792 50.8643 33.3482 50.6565C33.5172 50.4486 33.7536 50.3239 34.0053 50.3098C34.2571 50.2956 34.5036 50.3931 34.6906 50.5809C34.8776 50.7686 34.9899 51.0313 35.0026 51.311L36.0069 73.3237C36.0197 73.6027 35.9323 73.876 35.7639 74.0834C35.5956 74.2909 35.36 74.4157 35.1089 74.4305V74.4305ZM46.8869 73.4313C46.8744 73.7015 46.7689 73.9561 46.5922 74.1423C46.4155 74.3286 46.1812 74.4322 45.9376 74.4319C45.9212 74.4319 45.9047 74.4319 45.8889 74.4319C45.6375 74.4177 45.4015 74.2931 45.2327 74.0856C45.064 73.878 44.9763 73.6045 44.9891 73.3251L45.9978 51.3124C46.0041 51.1739 46.0349 51.0381 46.0884 50.9129C46.142 50.7876 46.2172 50.6753 46.3098 50.5823C46.4024 50.4893 46.5106 50.4175 46.6282 50.371C46.7457 50.3245 46.8704 50.3041 46.9951 50.3112C47.1197 50.3182 47.2419 50.3524 47.3547 50.4119C47.4674 50.4714 47.5685 50.555 47.6522 50.6579C47.7359 50.7608 47.8005 50.881 47.8423 51.0116C47.8842 51.1423 47.9025 51.2808 47.8962 51.4193L46.8869 73.4313ZM59.9987 52.5935L56.2405 72.3035C56.1955 72.54 56.0788 72.7521 55.91 72.9044C55.7411 73.0567 55.5303 73.14 55.3128 73.1402C55.2462 73.1401 55.1798 73.1323 55.1147 73.117C54.9927 73.0883 54.8771 73.0331 54.7743 72.9547C54.6715 72.8763 54.5837 72.7761 54.5157 72.66C54.4478 72.5438 54.4011 72.4139 54.3784 72.2777C54.3556 72.1415 54.3573 72.0017 54.3832 71.8662L58.1414 52.1562C58.1936 51.8825 58.3415 51.6431 58.5526 51.4906C58.7636 51.3381 59.0206 51.285 59.2669 51.343C59.5132 51.401 59.7286 51.5653 59.8659 51.7998C60.0031 52.0344 60.0509 52.3198 59.9987 52.5935V52.5935ZM63.6785 44.1876C62.5433 45.2283 61.5624 46.1269 59.5241 46.1269C57.4858 46.1269 56.505 45.2283 55.3697 44.1876C54.1313 43.0521 52.7271 41.7654 50.0066 41.7654C47.2862 41.7654 45.8845 43.0521 44.6467 44.1876C43.5121 45.2283 42.5325 46.1269 40.4961 46.1269C38.4597 46.1269 37.4782 45.2283 36.3429 44.1876C35.1052 43.0521 33.7016 41.7654 30.9817 41.7654C28.2619 41.7654 26.8596 43.0521 25.6218 44.1876C24.4872 45.2283 23.5076 46.1269 21.4712 46.1269C19.4348 46.1269 18.454 45.2283 17.3193 44.1876C16.8028 43.7323 16.2502 43.3298 15.6683 42.9853C16.2891 38.287 19.9335 20.531 39.5146 19.9411C39.0797 21.0905 38.8229 22.3134 38.7552 23.558C38.6138 26.317 39.3881 29.0378 40.9314 31.2049C42.4747 33.3721 44.6798 34.835 47.1289 35.3165C49.578 35.798 52.101 35.2646 54.2199 33.8175C56.3387 32.3703 57.9063 30.1099 58.6255 27.4645C63.5754 33.0895 64.9638 40.2424 65.3276 42.986C64.7463 43.3309 64.1943 43.7338 63.6785 44.1898V44.1876Z" fill="#DB3559"/>
</svg>
