<svg width="90" height="90" viewBox="0 0 90 90" fill="none" xmlns="http://www.w3.org/2000/svg">
<path d="M44.557 6.5334C44.6134 6.59391 44.6816 6.64217 44.7575 6.67517C44.8333 6.70816 44.9152 6.72519 44.9979 6.72519C45.0806 6.72519 45.1624 6.70816 45.2383 6.67517C45.3141 6.64217 45.3823 6.59391 45.4387 6.5334C46.9744 4.88387 50.1876 5.39082 51.3801 7.10855C53.4452 10.1018 52.0129 14.6461 45.6405 17.1161C45.2269 17.2743 44.7695 17.2743 44.3559 17.1161C37.9842 14.6461 36.5512 10.1018 38.6262 7.10855C39.8095 5.39082 43.0221 4.88387 44.557 6.5334Z" fill="#DB3559"/>
<path d="M57.389 36.3642H26.4283C26.185 36.3642 25.9517 36.2676 25.7797 36.0956C25.6077 35.9236 25.5111 35.6903 25.5111 35.447C25.5111 35.2037 25.6077 34.9704 25.7797 34.7984C25.9517 34.6264 26.185 34.5298 26.4283 34.5298H57.389C57.6323 34.5298 57.8656 34.6264 58.0376 34.7984C58.2096 34.9704 58.3062 35.2037 58.3062 35.447C58.3062 35.6903 58.2096 35.9236 58.0376 36.0956C57.8656 36.2676 57.6323 36.3642 57.389 36.3642Z" fill="#DB3559"/>
<path d="M69.4885 36.7032C69.3725 36.4036 67.6604 25.0658 66.3244 22.2828C65.9539 21.5093 65.4343 20.4265 64.5209 20.1734C64.1542 20.1184 63.7799 20.1418 63.4229 20.242C63.0658 20.3423 62.7341 20.5171 62.4495 20.7549C62.3383 20.8393 62.1999 20.8797 62.0607 20.8686C61.9216 20.8574 61.7914 20.7954 61.6951 20.6944C61.3774 20.3802 60.9837 20.1538 60.5523 20.0373C60.1209 19.9209 59.6667 19.9183 59.2341 20.03C58.8095 20.1764 58.4245 20.419 58.1091 20.7387C57.9985 20.8223 57.8647 20.8695 57.7262 20.8738C57.5877 20.878 57.4512 20.8392 57.3357 20.7626C56.7726 20.2153 56.0233 19.9013 55.2383 19.8837C54.4827 19.8647 53.7455 20.118 53.1612 20.5974C52.9664 20.7815 52.7107 20.8875 52.4428 20.8951C52.1749 20.9028 51.9135 20.8116 51.7086 20.6389C51.1426 20.1824 50.4381 19.9322 49.711 19.9294C48.8887 19.9629 48.0927 20.2281 47.4146 20.6944C47.3105 20.7595 47.189 20.7913 47.0664 20.7855C46.9438 20.7797 46.8258 20.7367 46.7283 20.6621C45.9847 20.1217 45.0813 19.8461 44.1626 19.8795C43.6649 19.8579 43.1679 19.9359 42.7008 20.1089C42.2337 20.2819 41.8058 20.5465 41.4422 20.8871C41.3321 20.9879 41.1889 21.0448 41.0396 21.0472C40.8904 21.0495 40.7454 20.9971 40.6322 20.8997C40.0012 20.3071 39.1619 19.9873 38.2965 20.0096C37.5945 20.0102 36.9149 20.257 36.3762 20.7071C36.2632 20.7952 36.1236 20.8424 35.9803 20.8409C35.837 20.8393 35.6984 20.7892 35.5873 20.6986C34.9174 20.1488 34.0722 19.8581 33.2058 19.8795C32.7456 19.8711 32.2883 19.9548 31.8609 20.1257C31.4334 20.2965 31.0444 20.5511 30.7168 20.8744C30.6082 20.982 30.4633 21.0449 30.3105 21.0508C30.1578 21.0567 30.0085 21.005 29.892 20.9061C29.3801 20.4466 28.7443 20.148 28.0639 20.0475C27.3559 19.952 26.6371 20.1138 26.0384 20.5035C25.4396 20.8932 25.0006 21.4849 24.8014 22.171C24.2389 24.17 23.8993 28.2052 23.5358 31.1365C23.1842 33.9961 22.7757 35.4608 22.107 36.7559C15.1939 50.1497 14.3438 65.7422 14.843 76.4677C14.8845 77.369 15.2722 78.2195 15.9253 78.8419C16.5784 79.4644 17.4466 79.8108 18.3488 79.8089H70.8961C71.7688 79.8057 72.6091 79.478 73.2536 78.8895C73.898 78.3011 74.3006 77.494 74.3829 76.6252C75.1641 67.5584 74.1516 48.6 69.4885 36.7032ZM46.793 51.1081L43.7492 54.1519C43.4064 54.497 42.999 54.771 42.5501 54.9584C42.1013 55.1458 41.6199 55.2428 41.1336 55.2439C40.5961 55.2396 40.0669 55.1119 39.5867 54.8705L38.4406 56.0166L43.2556 60.8309C43.5899 61.1651 43.7777 61.6184 43.7778 62.091C43.7778 62.5637 43.5901 63.017 43.256 63.3513C42.9218 63.6855 42.4685 63.8734 41.9958 63.8734C41.5232 63.8735 41.0699 63.6858 40.7356 63.3516L36.4676 59.0836L32.2489 63.3024C32.0842 63.4707 31.8877 63.6046 31.6709 63.6964C31.454 63.7883 31.2211 63.8362 30.9857 63.8375C30.7502 63.8387 30.5168 63.7933 30.299 63.7038C30.0812 63.6142 29.8833 63.4824 29.7168 63.3159C29.5503 63.1494 29.4185 62.9515 29.3289 62.7337C29.2394 62.5159 29.1939 62.2825 29.1952 62.047C29.1964 61.8115 29.2444 61.5786 29.3362 61.3618C29.4281 61.145 29.562 60.9485 29.7303 60.7838L34.4363 56.0778L33.3985 55.035C33.2574 55.0969 33.1119 55.1481 32.9633 55.1883C32.0896 55.4267 31.1672 55.4206 30.2968 55.1707C29.4264 54.9207 28.6413 54.4365 28.0273 53.7708C27.3547 53.0691 26.8699 52.2092 26.6176 51.2705C26.4526 50.6364 26.4562 49.9702 26.6282 49.3379C26.8002 48.7057 27.1344 48.1294 27.5978 47.6662C28.0612 47.203 28.6377 46.869 29.27 46.6973C29.9024 46.5256 30.5686 46.5223 31.2026 46.6875C32.1408 46.9392 33.0007 47.4227 33.7029 48.0938C34.3659 48.7099 34.8483 49.4951 35.0982 50.365C35.3481 51.2349 35.3561 52.1564 35.1211 53.0304C35.0696 53.2161 35.0012 53.3966 34.9165 53.5697L36.1407 54.7967C36.3277 54.7803 36.5157 54.7775 36.7032 54.7882C36.7186 54.7714 38.0792 53.394 38.0792 53.394C37.7297 52.708 37.6076 51.9286 37.7306 51.1686C37.8536 50.4086 38.2153 49.7075 38.7633 49.1668L41.8079 46.1222C41.9052 46.0215 42.0215 45.9412 42.1502 45.8859C42.2789 45.8306 42.4173 45.8015 42.5573 45.8003C42.6974 45.7991 42.8362 45.8258 42.9659 45.8788C43.0955 45.9318 43.2132 46.0101 43.3123 46.1092C43.4113 46.2082 43.4896 46.3259 43.5426 46.4556C43.5957 46.5852 43.6224 46.7241 43.6211 46.8641C43.6199 47.0041 43.5908 47.1425 43.5356 47.2712C43.4803 47.3999 43.3999 47.5163 43.2992 47.6136L40.2547 50.6574C40.1078 50.7853 39.9888 50.942 39.905 51.1178C39.8212 51.2936 39.7745 51.4848 39.7677 51.6794C39.7609 51.8741 39.7942 52.068 39.8655 52.2493C39.9368 52.4305 40.0445 52.5952 40.1821 52.733C40.3197 52.8708 40.4842 52.9789 40.6653 53.0505C40.8464 53.1221 41.0403 53.1558 41.235 53.1493C41.4296 53.1428 41.6209 53.0964 41.7968 53.013C41.9728 52.9295 42.1297 52.8108 42.2579 52.6641L45.3017 49.6196C45.3997 49.5217 45.516 49.444 45.6439 49.391C45.7719 49.338 45.9091 49.3108 46.0476 49.3108C46.1861 49.3109 46.3233 49.3382 46.4512 49.3912C46.5792 49.4442 46.6955 49.522 46.7934 49.6199C46.8913 49.7179 46.969 49.8342 47.0219 49.9622C47.0749 50.0902 47.1022 50.2273 47.1021 50.3658C47.1021 50.5044 47.0748 50.6415 47.0218 50.7695C46.9687 50.8974 46.891 51.0137 46.793 51.1116V51.1081ZM45.0465 47.8695C45.2442 48.0673 45.3553 48.3355 45.3553 48.6152C45.3553 48.8948 45.2442 49.163 45.0465 49.3608L43.1297 51.2768C43.0324 51.3776 42.9161 51.4579 42.7874 51.5132C42.6587 51.5685 42.5203 51.5976 42.3803 51.5988C42.2402 51.6 42.1014 51.5733 41.9717 51.5203C41.8421 51.4673 41.7244 51.3889 41.6253 51.2899C41.5263 51.1909 41.448 51.0731 41.395 50.9435C41.3419 50.8139 41.3153 50.675 41.3165 50.535C41.3177 50.3949 41.3468 50.2565 41.4021 50.1279C41.4573 49.9992 41.5377 49.8828 41.6384 49.7855L43.5551 47.8695C43.7529 47.6718 44.0211 47.5607 44.3008 47.5607C44.5805 47.5607 44.8487 47.6718 45.0465 47.8695ZM48.8251 31.4368C48.6548 31.6086 48.4522 31.7449 48.2289 31.8378C48.0056 31.9308 47.7661 31.9785 47.5243 31.9782H37.7438C37.2572 31.9778 36.7906 31.7843 36.4466 31.4403C36.1025 31.0962 35.909 30.6296 35.9086 30.143C35.9075 30.0984 35.9098 30.0537 35.9157 30.0094C35.9436 29.5698 36.1341 29.1562 36.4501 28.8493C36.6185 28.677 36.8198 28.5404 37.042 28.4474C37.2643 28.3544 37.5029 28.3069 37.7438 28.3079H47.5243C47.988 28.3067 48.4348 28.4819 48.7742 28.7978C49.1136 29.1137 49.3203 29.5468 49.3524 30.0094C49.3582 30.0537 49.3606 30.0984 49.3594 30.143C49.36 30.3832 49.3131 30.6212 49.2214 30.8432C49.1297 31.0653 48.995 31.267 48.8251 31.4368ZM72.2813 76.4438C72.2473 76.7878 72.0866 77.1068 71.8305 77.3389C71.5743 77.5709 71.2411 77.6995 70.8954 77.6996H57.7182C57.5612 77.7007 57.4098 77.642 57.2946 77.5354C57.1794 77.4288 57.1091 77.2824 57.098 77.1258C56.7008 71.3236 55.715 50.3811 61.0306 37.5729C61.5633 36.3046 61.9095 34.9658 62.0586 33.5982C62.2969 31.294 62.7772 26.6604 62.7617 24.0434C62.7698 23.8659 62.8452 23.6982 62.9726 23.5744C63.2496 23.2358 63.6334 23.0012 64.0611 22.9093C64.1428 22.9168 64.2206 22.9476 64.2853 22.9981C64.35 23.0486 64.3988 23.1166 64.426 23.194C65.6255 25.6915 66.3765 30.6711 66.8736 33.9659C66.9979 35.1497 67.216 36.3218 67.5261 37.471C71.8672 48.5522 73.0779 67.2244 72.2813 76.4438Z" fill="#DB3559"/>
</svg>
