<svg width="90" height="90" viewBox="0 0 90 90" fill="none" xmlns="http://www.w3.org/2000/svg">
<path d="M22.2441 60.8379C20.3659 60.8379 18.5298 61.3948 16.9682 62.4383C15.4065 63.4818 14.1893 64.9649 13.4706 66.7002C12.7518 68.4354 12.5637 70.3448 12.9302 72.187C13.2966 74.0291 14.201 75.7212 15.5291 77.0493C16.8572 78.3774 18.5493 79.2818 20.3914 79.6482C22.2336 80.0147 24.143 79.8266 25.8782 79.1078C27.6134 78.3891 29.0966 77.1719 30.1401 75.6102C31.1835 74.0485 31.7405 72.2125 31.7405 70.3343C31.7375 67.8166 30.736 65.4029 28.9558 63.6226C27.1755 61.8423 24.7618 60.8409 22.2441 60.8379ZM22.2441 73.5237C21.6133 73.5238 20.9966 73.3369 20.472 72.9865C19.9474 72.6361 19.5385 72.1381 19.297 71.5553C19.0555 70.9725 18.9922 70.3312 19.1152 69.7125C19.2382 69.0938 19.5419 68.5254 19.9879 68.0793C20.4339 67.6332 21.0022 67.3294 21.6209 67.2063C22.2396 67.0831 22.8809 67.1463 23.4637 67.3876C24.0466 67.629 24.5447 68.0378 24.8952 68.5623C25.2457 69.0868 25.4328 69.7035 25.4328 70.3343C25.4328 71.18 25.0968 71.9912 24.4989 72.5893C23.9009 73.1874 23.0898 73.5235 22.2441 73.5237Z" fill="#DB3559"/>
<path d="M64.7346 60.8379C62.8564 60.8379 61.0203 61.3948 59.4587 62.4383C57.897 63.4818 56.6798 64.9649 55.961 66.7002C55.2423 68.4354 55.0542 70.3448 55.4206 72.187C55.7871 74.0291 56.6915 75.7212 58.0196 77.0493C59.3477 78.3774 61.0398 79.2818 62.8819 79.6482C64.724 80.0147 66.6335 79.8266 68.3687 79.1078C70.1039 78.3891 71.5871 77.1719 72.6306 75.6102C73.674 74.0485 74.231 72.2125 74.231 70.3343C74.2282 67.8165 73.2268 65.4027 71.4465 63.6224C69.6662 61.8421 67.2523 60.8407 64.7346 60.8379ZM64.7346 73.5237C64.1038 73.5237 63.4871 73.3366 62.9627 72.9862C62.4382 72.6357 62.0294 72.1376 61.788 71.5548C61.5466 70.972 61.4834 70.3308 61.6065 69.7121C61.7295 69.0934 62.0333 68.5251 62.4793 68.0791C62.9254 67.633 63.4937 67.3293 64.1124 67.2062C64.731 67.0831 65.3723 67.1463 65.9551 67.3877C66.5379 67.6291 67.036 68.0379 67.3864 68.5624C67.7369 69.0869 67.9239 69.7035 67.9239 70.3343C67.924 70.7532 67.8416 71.1679 67.6814 71.5549C67.5211 71.9419 67.2862 72.2936 66.99 72.5897C66.6938 72.8859 66.3422 73.1208 65.9552 73.2811C65.5682 73.4413 65.1534 73.5238 64.7346 73.5237Z" fill="#DB3559"/>
<path d="M56.8829 11.2681C52.2851 11.2681 48.375 15.1416 48.375 20.4509C48.375 25.8713 53.2083 29.8854 56.0785 32.2796C56.3042 32.4686 56.5892 32.5722 56.8836 32.5722C57.178 32.5722 57.463 32.4686 57.6886 32.2796C60.5546 29.8826 65.3907 25.8748 65.3907 20.4509C65.3907 15.1416 61.4771 11.2681 56.8829 11.2681ZM56.8997 24.4812C56.0463 24.4813 55.2119 24.2284 54.5022 23.7543C53.7925 23.2802 53.2393 22.6064 52.9126 21.8179C52.5859 21.0294 52.5004 20.1618 52.6668 19.3247C52.8332 18.4876 53.2441 17.7187 53.8476 17.1151C54.451 16.5116 55.2199 16.1006 56.0569 15.934C56.894 15.7674 57.7617 15.8529 58.5502 16.1794C59.3387 16.506 60.0127 17.0591 60.4868 17.7687C60.961 18.4783 61.2141 19.3126 61.2141 20.1661C61.2141 20.733 61.1024 21.2944 60.8854 21.8181C60.6683 22.3418 60.3502 22.8176 59.9493 23.2183C59.5483 23.6191 59.0722 23.9368 58.5484 24.1535C58.0245 24.3702 57.4631 24.4816 56.8962 24.4812H56.8997Z" fill="#DB3559"/>
<path d="M78.2923 59.1554C78.2222 58.9972 78.1855 58.8263 78.1844 58.6534C78.1834 58.4804 78.2179 58.309 78.2859 58.15C78.9068 56.7304 79.4953 54.7475 78.1369 52.8062C77.5571 51.8689 76.6868 51.1468 75.6586 50.75C74.6304 50.3532 73.5007 50.3034 72.4416 50.6082C72.4184 50.6153 71.6681 50.9218 71.2919 51.0751C71.2271 51.1017 71.1569 51.1129 71.087 51.1078C71.0171 51.1026 70.9493 51.0814 70.8891 51.0456C70.4376 50.7819 69.9666 50.526 69.4694 50.2799C69.4111 50.2526 69.359 50.2134 69.3166 50.1649C69.2741 50.1164 69.2422 50.0596 69.2228 49.9982C69.2034 49.9367 69.1971 49.8719 69.204 49.8078C69.211 49.7437 69.2313 49.6818 69.2634 49.626C70.2816 47.9279 70.8806 45.5696 69.0722 43.591C68.5395 43.0287 67.8955 42.5834 67.1813 42.2835C66.4671 41.9837 65.6982 41.8358 64.9237 41.8494L47.3203 42.44C45.3326 42.44 43.5234 44.4151 43.5234 46.5843C43.4978 47.5041 43.7176 48.4143 44.1604 49.221C44.6032 50.0277 45.2529 50.7019 46.0427 51.1743C46.553 51.4222 46.9783 51.8159 47.2648 52.3056C48.1905 54.0431 48.6573 55.9882 48.6211 57.9566C48.6172 59.2041 48.1194 60.3993 47.2365 61.2807C46.3537 62.1621 45.1577 62.6579 43.9101 62.6598H38.153C37.5868 62.6658 37.0292 62.5215 36.5371 62.2415C36.045 61.9616 35.6359 61.5562 35.3517 61.0665C34.1451 58.9185 32.9941 54.6322 35.1717 47.7922C36.367 44.041 38.1164 37.5751 37.6376 33.1623L39.1022 31.9614C39.269 32.4049 39.5255 32.8092 39.8558 33.1489C40.1861 33.4887 40.5831 33.7565 41.0217 33.9357C41.2602 34.018 41.5106 34.0603 41.7628 34.0609C42.3282 34.0521 42.8729 33.8468 43.3034 33.4801C44.7441 32.3101 45.3853 29.5496 44.7954 27.0585C44.4129 25.4413 43.5733 24.3022 42.4926 23.9338C42.1056 23.8027 41.6908 23.7758 41.2901 23.8558C40.8894 23.9358 40.5167 24.1198 40.2096 24.3894C38.9819 25.3857 38.3435 27.5366 38.5425 29.6917L37.0969 30.8778C36.58 29.4936 35.6577 28.2973 34.4503 27.4455C33.243 26.5936 31.8067 26.1257 30.3293 26.1029C30.2899 26.1029 27.9162 26.1191 27.3466 26.214C27.0261 26.2724 26.7189 26.3889 26.4403 26.5578H26.4361C24.9145 27.4529 23.7895 29.833 23.7895 32.4395C23.7932 33.4716 24.0167 34.4911 24.4452 35.4301C24.8736 36.3691 25.4972 37.206 26.2744 37.8852C26.6083 38.1228 26.9692 38.3201 27.3494 38.473C27.5008 38.527 27.658 38.5631 27.8177 38.5806C28.8537 38.691 29.9006 38.6359 30.9192 38.4175C30.9569 38.4088 30.9964 38.4113 31.0327 38.4247C31.069 38.438 31.1007 38.4617 31.1238 38.4927C31.1509 38.5239 31.1682 38.5625 31.1736 38.6035C31.179 38.6445 31.1722 38.6861 31.1541 38.7233C29.4363 42.6095 26.2617 50.72 24.4877 55.3965C24.3784 55.6868 24.1762 55.9328 23.9126 56.0962C23.649 56.2596 23.3387 56.3313 23.0301 56.3C20.7182 56.0593 18.3831 56.415 16.2478 57.3333C14.1124 58.2516 12.2479 59.7017 10.8323 61.5453C10.4462 62.0343 10.2609 62.6521 10.3141 63.2729C10.3613 63.7576 10.5571 64.2158 10.8746 64.5849C11.1922 64.954 11.616 65.2161 12.0881 65.3352C12.1217 65.344 12.1557 65.351 12.1901 65.3563L29.8455 68.0141C30.5661 68.1105 31.2587 68.3562 31.879 68.7355C32.5323 69.1501 33.2905 69.3697 34.0643 69.3683H76.9922C77.686 69.3707 78.3537 69.1042 78.8552 68.6248C79.3567 68.1453 79.6529 67.4902 79.6816 66.797C79.7885 64.1785 79.314 61.5688 78.2923 59.1554ZM41.5385 26.027C41.5971 25.967 41.6746 25.9293 41.7579 25.9201C41.8943 25.9243 42.0349 26.0607 42.1692 26.2309C42.4512 26.6229 42.6465 27.0703 42.7423 27.5436C43.0284 28.7532 42.9273 30.022 42.4533 31.171C42.3126 31.4657 42.0054 31.9382 41.7016 31.9382C41.4478 31.9382 41.0154 31.3595 40.77 30.321C40.3523 28.5617 40.8312 26.6014 41.5385 26.027ZM27.5892 36.0303C27.5801 36.0491 27.5667 36.0655 27.5502 36.0781C27.5337 36.0908 27.5144 36.0995 27.4939 36.1035C27.4735 36.1074 27.4524 36.1066 27.4323 36.1009C27.4122 36.0953 27.3937 36.0851 27.3783 36.0711C26.4383 35.0959 25.9079 33.7974 25.8961 32.443C25.8386 31.0895 26.2726 29.7609 27.1181 28.7024C27.1323 28.6871 27.15 28.6754 27.1697 28.6684C27.1893 28.6613 27.2104 28.6592 27.2311 28.662C27.2518 28.6648 27.2715 28.6726 27.2885 28.6846C27.3056 28.6967 27.3195 28.7126 27.3291 28.7312C27.9385 29.9237 28.2788 31.2354 28.3261 32.5738C28.3407 33.7664 28.0889 34.9473 27.5892 36.0303ZM66.8292 49.4094H47.3379C46.8457 49.4094 45.6328 48.4173 45.6328 46.5835C45.6331 46.0948 45.8064 45.6219 46.1219 45.2487C46.4375 44.8755 46.875 44.626 47.3569 44.5445L64.9568 43.956C65.4329 43.9457 65.9059 44.0341 66.3462 44.2156C66.7864 44.3971 67.1843 44.6678 67.5148 45.0107C68.94 46.5744 67.4845 48.6332 66.8292 49.4094ZM76.7123 56.3071C75.7293 54.9007 74.5401 53.6504 73.1848 52.5981C73.8034 52.466 74.4479 52.5322 75.0267 52.7873C75.6056 53.0424 76.0894 53.4734 76.4093 54.0191C76.6364 54.3497 76.7821 54.7293 76.8345 55.1269C76.8869 55.5245 76.8446 55.9289 76.7109 56.3071H76.7123Z" fill="#DB3559"/>
</svg>
