<svg width="94" height="94" viewBox="0 0 94 94" fill="none" xmlns="http://www.w3.org/2000/svg">
<path d="M51.299 70.5735L49.8229 70.3591C49.8046 70.3562 49.7874 70.349 49.7725 70.338C49.7577 70.327 49.7457 70.3125 49.7377 70.2959L49.0768 68.9593C48.8854 68.5717 48.5894 68.2454 48.2223 68.0172C47.8552 67.789 47.4315 67.6681 46.9992 67.6681C46.567 67.6681 46.1433 67.789 45.7762 68.0172C45.409 68.2454 45.113 68.5717 44.9217 68.9593L44.2607 70.2959C44.2527 70.3126 44.2406 70.3272 44.2256 70.3382C44.2107 70.3492 44.1932 70.3563 44.1748 70.3591L42.6995 70.5735C42.2715 70.6356 41.8695 70.8161 41.5388 71.0948C41.2082 71.3735 40.9621 71.7391 40.8285 72.1504C40.6948 72.5616 40.6789 73.0021 40.7826 73.4219C40.8863 73.8417 41.1053 74.2241 41.415 74.5259L42.4828 75.565C42.496 75.5782 42.5059 75.5943 42.5117 75.6121C42.5174 75.6298 42.5189 75.6487 42.5159 75.6671L42.264 77.1359C42.1895 77.5623 42.2362 78.0011 42.3987 78.4024C42.5611 78.8037 42.8329 79.1513 43.1831 79.4058C43.5333 79.6603 43.9479 79.8115 44.3797 79.8421C44.8116 79.8728 45.2433 79.7816 45.626 79.5791L46.9478 78.8859C46.9642 78.8772 46.9825 78.8727 47.0011 78.8727C47.0196 78.8727 47.0379 78.8772 47.0543 78.8859L48.3762 79.5799C48.7589 79.7811 49.1902 79.8712 49.6215 79.8401C50.0527 79.809 50.4666 79.6578 50.8164 79.4037C51.1662 79.1495 51.4379 78.8026 51.6008 78.4021C51.7637 78.0016 51.8113 77.5635 51.7382 77.1373L51.4863 75.6686C51.4833 75.6507 51.4847 75.6323 51.4903 75.6151C51.4959 75.5978 51.5056 75.5822 51.5186 75.5694L52.5871 74.5281C52.8975 74.2262 53.1171 73.8433 53.221 73.4229C53.3248 73.0025 53.3088 72.5614 53.1747 72.1496C53.0406 71.7379 52.7937 71.372 52.4622 71.0934C52.1307 70.8148 51.7277 70.6347 51.299 70.5735Z" fill="#DB3559"/>
<path d="M66.3567 67.7439L65.6693 67.644L65.3594 67.0205C65.2085 66.7143 64.9749 66.4564 64.685 66.2761C64.3951 66.0958 64.0605 66.0002 63.7192 66.0002C63.3778 66.0002 63.0432 66.0958 62.7533 66.2761C62.4635 66.4564 62.2298 66.7143 62.0789 67.0205L61.772 67.644L61.0839 67.7439C60.7454 67.7925 60.4275 67.9351 60.166 68.1554C59.9045 68.3757 59.7101 68.6649 59.6047 68.9902C59.4993 69.3154 59.4872 69.6637 59.5698 69.9955C59.6524 70.3273 59.8263 70.6293 60.0719 70.8672L60.5705 71.3526L60.4523 72.0385C60.395 72.3749 60.4328 72.7206 60.5616 73.0365C60.6904 73.3525 60.9049 73.6262 61.1811 73.8267C61.4572 74.0272 61.7838 74.1465 62.1242 74.1712C62.4645 74.1958 62.8049 74.1248 63.1071 73.9662L63.7225 73.6424L64.3371 73.9662C64.6393 74.1248 64.9797 74.1958 65.32 74.1712C65.6604 74.1465 65.987 74.0272 66.2631 73.8267C66.5393 73.6262 66.7538 73.3525 66.8826 73.0365C67.0114 72.7206 67.0492 72.3749 66.9919 72.0385L66.8744 71.3526L67.3716 70.8672C67.6161 70.629 67.7891 70.3271 67.8709 69.9957C67.9527 69.6643 67.9402 69.3166 67.8347 68.9919C67.7291 68.6673 67.5348 68.3787 67.2737 68.1588C67.0127 67.9388 66.6952 67.7964 66.3574 67.7475L66.3567 67.7439Z" fill="#DB3559"/>
<path d="M82.0474 64.5818C81.9427 64.2566 81.7486 63.9675 81.4873 63.7475C81.226 63.5275 80.908 63.3855 80.5698 63.3378L79.8817 63.2379L79.5732 62.6144C79.4224 62.3084 79.1889 62.0507 78.8991 61.8704C78.6094 61.6902 78.275 61.5947 77.9338 61.5947C77.5925 61.5947 77.2581 61.6902 76.9684 61.8704C76.6786 62.0507 76.4451 62.3084 76.2943 62.6144L75.9858 63.2386L75.2977 63.3385C74.96 63.3876 74.6428 63.5302 74.3819 63.7502C74.121 63.9701 73.9269 64.2587 73.8214 64.5832C73.7159 64.9077 73.7032 65.2553 73.7849 65.5866C73.8666 65.918 74.0393 66.2198 74.2835 66.4581L74.7822 66.9443L74.6647 67.628C74.6068 67.9644 74.6443 68.3104 74.7728 68.6267C74.9014 68.9429 75.1158 69.2169 75.392 69.4177C75.6681 69.6184 75.9949 69.7378 76.3354 69.7625C76.6759 69.7872 77.0165 69.716 77.3187 69.5572L77.9341 69.2333L78.5495 69.5572C78.8517 69.716 79.1922 69.7871 79.5326 69.7624C79.873 69.7378 80.1997 69.6184 80.4759 69.4178C80.752 69.2171 80.9665 68.9433 81.0951 68.6271C81.2237 68.311 81.2612 67.9651 81.2036 67.6287L81.0853 66.9436L81.584 66.4581C81.8296 66.2204 82.0033 65.9184 82.0852 65.5865C82.1672 65.2547 82.154 64.9065 82.0474 64.5818Z" fill="#DB3559"/>
<path d="M32.914 67.7439L32.2266 67.644L31.9197 67.0206C31.7686 66.7144 31.5349 66.4566 31.245 66.2763C30.9551 66.096 30.6205 66.0005 30.2791 66.0005C29.9377 66.0005 29.6031 66.096 29.3131 66.2763C29.0232 66.4566 28.7895 66.7144 28.6385 67.0206L28.3315 67.644L27.6434 67.7439C27.3047 67.7922 26.9864 67.9344 26.7245 68.1545C26.4627 68.3747 26.2679 68.6638 26.1621 68.9891C26.0564 69.3145 26.0441 69.6629 26.1265 69.9949C26.209 70.3269 26.3829 70.6291 26.6285 70.8672L27.1264 71.3527L27.0089 72.0386C26.9516 72.3749 26.9894 72.7206 27.1182 73.0366C27.247 73.3526 27.4615 73.6263 27.7377 73.8268C28.0138 74.0273 28.3404 74.1466 28.6808 74.1713C29.0211 74.1959 29.3615 74.1249 29.6637 73.9663L30.2783 73.6424L30.8937 73.9663C31.1958 74.1249 31.5363 74.1959 31.8766 74.1713C32.217 74.1466 32.5436 74.0273 32.8197 73.8268C33.0958 73.6263 33.3104 73.3526 33.4392 73.0366C33.568 72.7206 33.6058 72.3749 33.5485 72.0386L33.4303 71.3527L33.9282 70.8672C34.1727 70.629 34.3457 70.3272 34.4275 69.9958C34.5093 69.6644 34.4968 69.3167 34.3912 68.992C34.2857 68.6674 34.0914 68.3788 33.8303 68.1588C33.5693 67.9389 33.2518 67.7965 32.914 67.7476V67.7439Z" fill="#DB3559"/>
<path d="M18.7016 63.3378L18.0142 63.2379L17.7058 62.6137C17.5549 62.3076 17.3214 62.0499 17.0316 61.8697C16.7419 61.6895 16.4075 61.594 16.0663 61.594C15.7251 61.594 15.3907 61.6895 15.1009 61.8697C14.8112 62.0499 14.5777 62.3076 14.4268 62.6137L14.1184 63.2379L13.4295 63.3378C13.0917 63.3868 12.7744 63.5293 12.5134 63.7493C12.2524 63.9692 12.0582 64.2579 11.9528 64.5825C11.8473 64.9071 11.8348 65.2547 11.9167 65.5861C11.9986 65.9174 12.1716 66.2193 12.4161 66.4574L12.9147 66.9428L12.7965 67.6287C12.739 67.9651 12.7767 68.3108 12.9053 68.6268C13.034 68.9429 13.2485 69.2166 13.5246 69.4172C13.8007 69.6177 14.1273 69.737 14.4677 69.7616C14.808 69.7862 15.1484 69.7152 15.4505 69.5565L16.0659 69.2326L16.6821 69.5572C16.9842 69.7158 17.3246 69.7867 17.6649 69.762C18.0052 69.7372 18.3318 69.6178 18.6078 69.4172C18.8838 69.2166 19.0982 68.9428 19.2267 68.6268C19.3553 68.3107 19.3929 67.965 19.3354 67.6287L19.2179 66.9436L19.7165 66.4574C19.961 66.2192 20.134 65.9172 20.2158 65.5858C20.2976 65.2543 20.285 64.9066 20.1793 64.5819C20.0737 64.2573 19.8793 63.9687 19.6182 63.7488C19.357 63.5289 19.0395 63.3865 18.7016 63.3378Z" fill="#DB3559"/>
<path d="M63.9971 45.6341L50.3738 32.0107C49.6829 31.3185 48.7806 30.877 47.8102 30.7562C46.8397 30.6354 45.8567 30.8422 45.0172 31.3439L43.2951 29.6218C43.7009 29.0381 44.0028 28.3886 44.1874 27.7021C44.7969 25.4006 45.1949 20.9158 41.0112 16.732C39.4429 15.2397 37.5294 14.1588 35.4417 13.586C34.0975 13.2278 32.6827 13.2294 31.3392 13.5904C29.9957 13.9513 28.7707 14.6591 27.787 15.6428C26.8033 16.6264 26.0954 17.8514 25.7343 19.1948C25.3732 20.5383 25.3716 21.9531 25.7296 23.2973C26.3022 25.3854 27.383 27.2991 28.8757 28.8676C30.24 30.3477 31.9836 31.4262 33.9172 31.9861C35.8508 32.546 37.9009 32.5659 39.845 32.0437C40.5187 31.8629 41.1567 31.5686 41.7316 31.1735L43.467 32.9088C42.9765 33.7468 42.778 34.7238 42.9023 35.6868C43.0267 36.6498 43.4671 37.5442 44.1543 38.2301L57.7777 51.8528C58.186 52.2613 58.6708 52.5853 59.2044 52.8064C59.738 53.0275 60.3099 53.1413 60.8874 53.1413C61.465 53.1413 62.0369 53.0275 62.5705 52.8064C63.1041 52.5853 63.5888 52.2613 63.9971 51.8528C64.8214 51.0279 65.2844 49.9095 65.2844 48.7434C65.2844 47.5773 64.8214 46.4589 63.9971 45.6341ZM39.281 29.914C37.0309 30.5111 33.6689 30.5441 30.4333 27.3092C29.2265 26.035 28.3485 24.4858 27.8754 22.7958C27.6137 21.816 27.6116 20.7849 27.8691 19.804C28.1266 18.8232 28.635 17.9262 29.3442 17.2013C29.8767 16.6699 30.51 16.2501 31.2068 15.9665C31.9036 15.6829 32.6501 15.5412 33.4024 15.5497C33.9199 15.5512 34.4357 15.6121 34.9394 15.7311C36.6295 16.2049 38.1788 17.083 39.4536 18.2896C42.6849 21.5209 42.654 24.8858 42.0577 27.1381C41.8849 27.8066 41.5362 28.4166 41.0479 28.9048C40.5596 29.3929 39.9495 29.7414 39.281 29.914Z" fill="#DB3559"/>
<path d="M69.5527 18.8909C68.9891 18.3299 68.2378 17.9974 67.4435 17.9576C67.4053 17.1637 67.0729 16.4124 66.5112 15.8502C65.9494 15.2879 65.1985 14.9548 64.4047 14.9158C64.3697 14.2906 64.1545 13.689 63.7849 13.1836C63.4154 12.6781 62.9074 12.2905 62.3223 12.0676C61.7372 11.8447 61.1001 11.796 60.4879 11.9274C59.8757 12.0588 59.3147 12.3647 58.8726 12.8081L51.7037 19.9749C50.429 21.2557 49.6549 22.9505 49.5215 24.7525C49.3882 26.5546 49.9044 28.3449 50.9766 29.7993L49.458 31.318C48.6199 30.8276 47.6428 30.6291 46.6798 30.7536C45.7168 30.8781 44.8224 31.3186 44.1367 32.0061L30.5133 45.6281C29.6886 46.4528 29.2254 47.5714 29.2255 48.7377C29.2255 49.904 29.6889 51.0225 30.5137 51.8471C31.3384 52.6718 32.457 53.135 33.6233 53.1349C34.7896 53.1349 35.9081 52.6715 36.7327 51.8468L50.3554 38.2241C51.0474 37.5333 51.4889 36.6312 51.6098 35.661C51.7307 34.6907 51.5242 33.7078 51.0229 32.8683L52.5299 31.3614C53.982 32.4508 55.7786 32.9794 57.5894 32.85C59.4002 32.7206 61.1034 31.9419 62.3859 30.6571L69.5527 23.4903C70.1625 22.8804 70.5051 22.0532 70.5051 21.1906C70.5051 20.3281 70.1625 19.5009 69.5527 18.8909ZM67.9951 21.9327L60.8283 29.0995C59.8161 30.0571 58.4702 30.582 57.077 30.5627C55.6837 30.5434 54.3529 29.9813 53.3677 28.9961C52.3824 28.0108 51.8203 26.68 51.801 25.2867C51.7817 23.8935 52.3066 22.5476 53.2642 21.5354L60.431 14.3694C60.6308 14.1783 60.8966 14.0717 61.1731 14.0717C61.4495 14.0717 61.7154 14.1783 61.9152 14.3694C62.1113 14.5666 62.2214 14.8334 62.2214 15.1115C62.2214 15.3896 62.1113 15.6564 61.9152 15.8536L58.6766 19.0878C58.4759 19.2955 58.3649 19.5738 58.3674 19.8626C58.3699 20.1514 58.4858 20.4277 58.69 20.6319C58.8942 20.8362 59.1705 20.952 59.4593 20.9545C59.7482 20.9571 60.0264 20.846 60.2342 20.6454L63.4728 17.4075C63.6725 17.2165 63.9381 17.1098 64.2145 17.1098C64.4908 17.1098 64.7565 17.2165 64.9562 17.4075C65.1528 17.6043 65.2632 17.8711 65.2632 18.1492C65.2632 18.4274 65.1528 18.6942 64.9562 18.8909L61.7176 22.1295C61.517 22.3373 61.4059 22.6156 61.4084 22.9044C61.4109 23.1932 61.5268 23.4695 61.731 23.6737C61.9353 23.878 62.2116 23.9938 62.5004 23.9963C62.7892 23.9988 63.0675 23.8878 63.2752 23.6871L66.5138 20.4486C66.7106 20.2517 66.9776 20.1412 67.2559 20.1412C67.5342 20.1412 67.8012 20.2517 67.998 20.4486C68.1948 20.6454 68.3054 20.9123 68.3054 21.1906C68.3054 21.469 68.1948 21.7359 67.998 21.9327H67.9951Z" fill="#DB3559"/>
</svg>
