<svg width="87" height="85" viewBox="0 0 87 85" fill="none" xmlns="http://www.w3.org/2000/svg">
<path d="M26.9036 38.8251C26.0383 38.2446 24.766 37.075 23.9693 36.2018C23.4688 36.9777 21.779 38.9759 19.8435 41.1409C19.0383 40.4211 18.0797 39.6929 17.107 39.0164C18.1147 37.8892 19.0566 36.7997 19.8065 35.9248C22.8785 32.2005 19.6812 28.827 17.2535 28.8779C18.3707 30.6171 18.0946 32.3663 16.832 34.1026C16.3879 34.6714 15.4141 35.7967 14.2125 37.1048C12.9093 36.2938 11.771 35.6947 11.158 35.372C10.9962 35.5171 10.554 36.1197 10.426 36.2628C11.039 36.5855 11.9995 37.3476 13.105 38.2716C11.1318 40.3706 8.87915 42.6384 7.52033 43.8702C8.70015 44.603 9.70212 45.4988 10.8643 46.8275C11.5161 45.4143 13.5738 43.0045 15.6994 40.5909C16.562 41.4265 17.4246 42.2621 18.13 43.0215C15.7749 45.5839 13.4102 47.9768 12.5576 48.5345C13.5029 49.0255 15.39 50.5516 15.9514 51.472C16.7566 50.0672 25.2661 39.9366 26.9036 38.8251Z" fill="#DB3559"/>
<path d="M29.0043 46.1898C29.2038 44.6925 28.351 43.629 27.0414 43.1995C24.8437 42.4588 21.9717 43.5492 20.2268 47.2638C18.4717 51.0001 20.2262 53.813 22.1161 54.7007C25.8307 56.4456 28.4063 53.3333 29.378 50.9261C30.3484 48.4651 29.0105 46.0071 26.747 46.084C27.9177 46.9787 27.7324 48.6151 26.8855 50.4181C26.0678 52.1023 24.6752 53.5429 23.5124 52.9702C22.057 52.2865 22.1133 50.6424 22.9434 48.5929C24.2199 45.4803 26.913 44.0937 29.0043 46.1898Z" fill="#DB3559"/>
<path d="M36.5273 45.5612C36.9013 45.1045 38.1109 44.0002 39.3527 43.2969C37.7517 43.3037 36.9422 43.2928 35.7921 43.1556C36.5235 40.4667 37.2224 38.1396 37.7045 37.3136C36.347 38.3106 34.6777 39.1632 33.2305 39.7954C33.1705 40.4954 32.9609 41.5307 32.6854 42.7479C32.4982 42.7056 32.3056 42.6866 32.0896 42.6623C31.573 42.9883 30.6399 43.9583 29.8467 44.4186C30.5755 44.4605 31.3872 44.5703 32.2043 44.6568C31.4084 47.8478 30.3525 51.6444 29.8718 54.0948C29.0695 58.2932 33.4605 59.1145 35.2149 57.1247C33.8617 57.0153 32.9711 55.7311 33.2271 54.165C33.5011 52.6276 34.3358 48.8301 35.2557 45.1996C35.7707 45.3162 36.2102 45.4402 36.5273 45.5612Z" fill="#DB3559"/>
<path d="M50.3712 48.7197C52.5823 47.9413 53.2636 45.4321 52.4053 43.9618C51.4503 42.3364 49.0545 42.3905 47.2101 43.185C44.2437 44.4199 42.1088 48.3677 43.2536 53.8978C45.0239 62.5368 53.0016 62.9328 56.7144 58.0373C49.9897 60.4106 47.4969 55.7442 46.8023 53.1316C45.9487 49.9607 45.6695 45.9483 47.9171 45.0915C49.6575 44.4101 51.3081 46.6081 50.3712 48.7197Z" fill="#DB3559"/>
<path d="M61.0043 44.5643C60.1502 45.0675 58.8742 45.6238 57.8238 45.977C58.3559 46.8971 59.0148 48.4687 59.6738 50.0403C60.0253 51.327 59.9509 52.5376 59.2125 52.8857C57.8429 53.5876 56.3377 51.7565 55.7774 50.3513C53.9117 45.7713 57.3651 44.6847 58.4308 45.2673C58.0906 43.7662 56.1127 42.9529 54.4046 43.9593C52.7089 44.9342 50.9275 47.3341 52.769 51.5581C54.764 56.1342 57.6252 56.0912 58.9232 55.5253C60.3313 54.9114 60.8671 53.9186 60.9799 52.796C61.2924 53.3928 61.579 53.87 61.8933 54.2305C63.7759 56.4468 66.175 54.5631 66.871 52.9767C63.7684 53.7272 61.5871 46.5618 61.0043 44.5643Z" fill="#DB3559"/>
<path d="M67.0419 35.6652C66.3189 36.5636 65.4802 37.092 64.4926 37.7417C65.8099 39.2069 67.0678 41.5873 65.7893 43.2478C68.9874 47.1741 74.7805 48.2439 77.5301 43.3731C74.1878 44.3621 70.6486 44.2733 68.4432 41.9837C68.8548 40.627 68.5673 37.7658 67.0419 35.6652ZM53.1693 38.2049C54.6407 37.1612 55.9899 37.1455 57.1812 38.342C58.2023 39.3676 65.6505 48.7778 67.0318 51.1195C67.6851 50.4016 68.7968 49.3723 69.8706 48.7144C68.2906 47.6488 62.4271 39.4241 59.5899 36.4729C56.9987 33.7857 53.5576 35.9075 53.1693 38.2049Z" fill="#DB3559"/>
<path d="M74.8431 37.3416C76.1499 36.6908 77.7537 33.4344 75.1087 31.2368C72.3474 28.9544 70.2851 29.8262 68.9128 31.7068C67.6112 33.4904 67.0359 36.8438 71.1265 39.8289C76.1865 43.5213 82.3338 39.3317 79.7731 34.0464C79.202 36.9869 76.2373 39.3395 72.8991 36.9926C71.0097 35.6733 69.0752 33.8456 69.9843 32.5184C70.8033 31.274 72.4532 32.2701 73.3676 33.175C74.3154 34.0746 75.1506 35.9023 74.8431 37.3416Z" fill="#DB3559"/>
</svg>
